<?xml version="1.0" standalone="no"?>
<!DOCTYPE svg PUBLIC "-//W3C//DTD SVG 20010904//EN"
 "http://www.w3.org/TR/2001/REC-SVG-20010904/DTD/svg10.dtd">
<svg version="1.0" xmlns="http://www.w3.org/2000/svg"
 width="640.000000pt" height="640.000000pt" viewBox="0 0 640.000000 640.000000"
 preserveAspectRatio="xMidYMid meet">
<metadata>
Created by potrace 1.11, written by Peter Selinger 2001-2013
</metadata>
<g transform="translate(0.000000,640.000000) scale(0.100000,-0.100000)"
fill="#000000" stroke="none">
<path d="M2285 5230 c-1 -3 -2 -319 -2 -703 0 -383 -3 -700 -6 -704 -4 -3
-323 -6 -709 -7 l-703 -1 0 -705 0 -705 703 -1 c386 0 705 -4 709 -7 3 -4 7
-323 7 -709 l1 -703 705 0 705 0 0 708 c0 464 3 707 10 708 6 0 325 1 710 2
l700 2 0 705 0 705 -680 2 c-374 1 -693 2 -710 2 l-30 1 0 707 0 708 -703 0
c-387 0 -705 -2 -707 -5z"/>
</g>
</svg>
